<svg xmlns="http://www.w3.org/2000/svg" width="256" height="256"><path fill="#1976D2" fill-opacity=".016" fill-rule="evenodd" d="M0 128.004v128.004l128.25-.254 128.25-.254.254-127.75L257.008 0H0v128.004m.485.496c0 70.4.119 99.053.265 63.672.146-35.38.146-92.98 0-128C.604 29.153.485 58.1.485 128.5"/><path fill="#1976D2" fill-opacity=".107" fill-rule="evenodd" d="M93.015 16.25c.009.688.446 1.925.972 2.75 1.155 1.813 4.319.271 4.836-2.357.244-1.238-.435-1.643-2.75-1.643-1.8 0-3.067.518-3.058 1.25M120 16c0 .55-1.998 1-4.441 1-2.443 0-4.719.45-5.059 1-.34.55-1.723 1-3.073 1-1.35 0-3.236.397-4.191.883-3.647 1.856-6.852 3.023-9.986 3.638-1.842.362-3.25 1.253-3.25 2.058 0 .782-.638 1.421-1.417 1.421s-1.566.337-1.75.75c-.183.413-2.133 1.662-4.333 2.776-3.021 1.531-4.61 3.305-6.492 7.25C74.399 41.149 72.894 43 71.758 43 70.791 43 70 42.55 70 42s-.42-1-.933-1C67.705 41 59 50.18 59 51.616c0 .671-2.518 3.394-5.596 6.052-3.079 2.658-5.943 5.732-6.367 6.832-.58 1.509-1.692 2-4.532 2-5.085 0-7.007 2.802-3.755 5.473 1.237 1.016 2.243 2.675 2.235 3.687-.012 1.402-.219 1.519-.868.495-.632-.997-1.018-.687-1.49 1.195-.555 2.213-1.251 2.58-5.382 2.845-4.085.263-4.79.626-5.072 2.61-.179 1.268.18 2.915.799 3.661.832 1.003.833 1.537.001 2.05-.756.468-.387 1.479 1.126 3.089C31.988 93.616 32.08 94 30.674 94 29.753 94 29 93.55 29 93s-.675-1-1.5-1c-2.163 0-1.844 3.005.594 5.6 2.278 2.425 1.887 6.4-.63 6.4-.771 0-1.203-.562-.961-1.25.242-.687-.228-2.132-1.044-3.209-1.471-1.94-1.505-1.939-3.563.118-1.588 1.588-1.848 2.521-1.103 3.959 4.605 8.897 4.247 10.163-2.991 10.578-3.911.224-5.302.698-5.302 1.804 0 1.011 1.221 1.601 3.75 1.81 2.551.212 3.75.796 3.75 1.83 0 1.16-.693 1.367-2.934.874-2.419-.531-3.225-.201-4.587 1.877-1.883 2.874-1.331 4.335 2.136 5.653 1.332.506 2.852 2.053 3.378 3.438.527 1.385 1.699 2.518 2.605 2.518 1.283 0 1.395.303.507 1.373-2.574 3.102 1.816 6.306 4.695 3.427.66-.66 1.2-.794 1.2-.298 0 .497-1.395 2.342-3.099 4.1-3.946 4.072-3.367 7.398 1.289 7.398 2.373 0 2.817.286 1.99 1.284-1.418 1.708.154 4.238 1.958 3.152 1.131-.681 1.141-.547.057.791-1.095 1.351-1.03 1.766.404 2.568 1.526.855 1.425 1.143-.945 2.696-2.623 1.719-3.528 4.851-1.723 5.966.512.317 1.234.085 1.604-.514.43-.695 1.201-.338 2.127.985.799 1.141 3.452 2.985 5.896 4.098 4.775 2.176 5.646 3.846 2.442 4.684-1.1.288-2 1.123-2 1.857 0 .733-.788 1.778-1.75 2.321-1.349.761-1.479 1.261-.568 2.182.911.92.716 1.825-.849 3.942-1.657 2.242-1.823 3.139-.897 4.868 1.259 2.352 4.257 2.798 5.857.87 1.678-2.023 7.097-1.352 8.808 1.09 1.903 2.718 5.229 2.794 6.21.141.692-1.87 1.033-1.725 4.646 1.975 2.836 2.904 4.236 3.714 5.132 2.97.843-.699 1.438-.691 1.881.025.356.577 2.196 1.049 4.089 1.049 1.893 0 3.441.45 3.441 1s1.35 1 3 1 3 .45 3 1-.675 1-1.5 1-1.5.436-1.5.969c0 .532.675.709 1.5.393.95-.365 1.5.013 1.5 1.031 0 1.764 2.515 2.2 3.5.607.825-1.335 4.5-1.284 4.5.063 0 .584 1.013.922 2.25.75 1.691-.235 2.329.246 2.57 1.937.412 2.902 1.915 2.902 2.474 0l.434-2.25.136 2.25c.095 1.568.766 2.25 2.215 2.25 1.791 0 1.988.417 1.421 3s-.37 3 1.421 3c1.143 0 2.079.45 2.079 1s.9 1 2 1c2.206 0 2.724 1.575.75 2.28-.687.245-.934.786-.548 1.202.959 1.032 4.079-2.219 3.316-3.454-.336-.543-.108-1.925.505-3.071.759-1.417.791-2.476.102-3.307-.734-.884-.526-1.221.75-1.221 1.44 0 1.731.79 1.585 4.308-.162 3.874.02 4.245 1.798 3.681 1.383-.439 1.845-.228 1.536.699-.243.731-1.501 1.578-2.794 1.883-1.293.305-2.53 1.089-2.748 1.743-.488 1.464 8.645 1.514 10.454.056 1.469-1.183 3.294-.208 3.294 1.76 0 2.049 2.762 1.791 3.311-.309.435-1.667.463-1.667.573 0 .069 1.045.922 1.75 2.116 1.75 1.163 0 2 .667 2 1.594 0 .876.9 1.829 2 2.116 1.417.371 2 1.364 2 3.407 0 1.896.513 2.883 1.5 2.883.825 0 1.5-.664 1.5-1.475 0-1.106.751-1.325 3-.875 2.273.455 3 .234 3-.908 0-.83.787-1.735 1.75-2.012a38.718 38.718 0 0 0 3.369-1.173c1.103-.457 1.779-.056 2.123 1.261.637 2.436 5.679 2.643 7.457.307 1.589-2.086 1.637-5.389.101-6.925-.933-.933-.686-1.2 1.115-1.2 2.275 0 2.285-.045.576-2.655-1.624-2.478-1.627-2.611-.034-2 .939.36 1.895.655 2.125.655.23 0 .418.83.418 1.845 0 2.007 2.949 5.155 4.829 5.155 1.431 0 1.544-1.651.171-2.5-.55-.34-1-1.483-1-2.54 0-1.216-.918-2.152-2.5-2.549-3.314-.832-3.148-1.475 1.089-4.22 2.829-1.833 3.859-2.064 4.999-1.118 1.184.983 1.389.783 1.174-1.145-.192-1.713.498-2.71 2.586-3.734 2.452-1.203 2.792-1.868 2.45-4.795-.218-1.87-.057-3.399.357-3.399.415 0 1.857-1.012 3.204-2.25 5.618-5.158 5.999-5.348 5.373-2.681a83.9 83.9 0 0 1-1.268 4.681c-.535 1.727-.3 2.25 1.01 2.25 2.033 0 9.465-5.07 9.527-6.5.024-.55.923-2.125 1.999-3.5s1.966-3.685 1.978-5.133c.017-2.07.611-2.748 2.772-3.167 1.695-.328 3.39.042 4.418.964 2.268 2.036 6.223 1.345 6.662-1.164.192-1.1 1.316-2.757 2.497-3.683l2.147-1.683-2.324-2.474-2.324-2.474 3.199.157c4.352.213 6.114-2.427 3.528-5.284-1.025-1.133-2.468-2.059-3.208-2.059-.74 0-1.345-.388-1.345-.861 0-.474 1.024-.666 2.275-.427 1.488.285 3.234-.454 5.051-2.138 3.335-3.091 3.307-3.087 3.964-.574.847 3.241 6.643 2.515 7.981-1 .382-1.002.597-.753.65.75.083 2.363 1.498 2.999 2.623 1.18.363-.589.632-3.535.596-6.546-.048-3.987.342-5.632 1.433-6.05 1.323-.508 1.316-.854-.06-2.955-.858-1.308-1.188-2.379-.735-2.379 1.468 0 6.206 2.478 6.214 3.25.004.412.908.75 2.008.75 2.362 0 2.578-1.853.532-4.559-1.763-2.33-1.909-3.441-.455-3.441.592 0 2.452-1.375 4.133-3.056l3.056-3.057-2.742-2.862c-1.508-1.574-2.494-3.264-2.191-3.754.303-.491-.772-2.44-2.389-4.332-2.998-3.508-3.736-6.331-1.944-7.439.55-.34 1-2.383 1-4.54 0-3.238-.394-4.021-2.259-4.489-3.987-1-7.613-10.196-4.725-11.981 1.304-.805.285-2.49-1.505-2.49-.755 0-1.548 1.013-1.763 2.25-.38 2.187-.422 2.176-1.515-.421-.845-2.008-1.633-2.537-3.178-2.133-1.167.305-2.055.055-2.055-.579 0-.615.81-1.117 1.799-1.117 1.468 0 1.724-.645 1.39-3.509-.226-1.93-.81-3.757-1.299-4.059-.49-.303-.89-1.648-.89-2.991 0-1.937-.516-2.441-2.5-2.441-1.63 0-2.5-.56-2.5-1.607 0-1.018.55-1.396 1.5-1.031.914.35 1.5.001 1.5-.893 0-.808-.42-1.469-.933-1.469-.513 0-1.218-.9-1.567-2s-1.504-2-2.567-2c-1.266 0-1.933-.69-1.933-2 0-1.333-.667-2-2-2s-2-.667-2-2c0-1.166-.667-2-1.599-2-.879 0-2.86-1.35-4.401-3s-3.522-3-4.401-3c-.932 0-1.599-.834-1.599-2 0-1.467-.667-2-2.5-2-1.375 0-2.5-.45-2.5-1s-1.8-1-4-1-4-.45-4-1 1.125-1 2.5-1 2.5-.45 2.5-1-.576-1-1.279-1c-.704 0-1.928-.9-2.721-2-.793-1.1-2.042-2-2.776-2s-3.985-2.7-7.224-6c-3.239-3.3-6.417-6-7.063-6-.645 0-2.463-1.462-4.039-3.25-2.962-3.358-3.833-3.22-1.658.263 1.074 1.72.873 2.327-1.5 4.527-1.507 1.398-2.74 2.638-2.74 2.757 0 .119.41 1.646.911 3.394.738 2.573.643 3.075-.5 2.637-.918-.353-1.411-2.075-1.411-4.935 0-3.726.304-4.393 2-4.393 1.333 0 2-.667 2-2 0-1.1-.484-2-1.076-2-.636 0-.96-1.621-.791-3.957.157-2.177-.106-4.314-.584-4.75-.487-.445-.514-.18-.06.603.648 1.118.233 1.252-2.09.676-1.594-.396-3.049-1.137-3.232-1.646-.184-.509-2.07-.926-4.191-.926-2.122 0-4.136-.45-4.476-1-.834-1.349-31.5-1.349-31.5 0m-41 8.186c0 1.547 3.898 4.249 4.812 3.335.928-.928-1.295-3.975-3.169-4.344-.904-.178-1.643.276-1.643 1.009M58.779 30.75c-.691 2.667.179 4.25 2.336 4.25 2.745 0 3.527-2.8 1.26-4.516-2.471-1.871-3.052-1.828-3.596.266m7.515 2c-.354.962-1.24 2.11-1.969 2.55-1.771 1.069-1.676 3.164.216 4.734 1.297 1.076 2.087.749 4.988-2.062 3.234-3.135 3.346-3.453 1.804-5.157-2.079-2.296-4.209-2.324-5.039-.065M52.25 40.54C49.218 43.715 47.971 47 49.797 47 51.051 47 58 39.552 58 38.208c0-2.139-2.415-1.16-5.75 2.332m7.196 1.547c-.945 1.529 1.106 3.299 2.987 2.577.862-.331 1.567-1.29 1.567-2.133 0-1.747-3.535-2.092-4.554-.444M55.15 44.95c.43 1.289 1.801 1.521 1.925.325.041-.399-.465-.905-1.125-1.125-.66-.22-1.02.14-.8.8M166.158 46c0 1.375.227 1.938.504 1.25.278-.687.278-1.812 0-2.5-.277-.687-.504-.125-.504 1.25M164 51c0 1.867.267 2.133 1.2 1.2.933-.933.933-1.467 0-2.4-.933-.933-1.2-.667-1.2 1.2m-4 5.059c0 .582.45.781 1 .441s1-.816 1-1.059-.45-.441-1-.441-1 .477-1 1.059M204 59c0 .55.45 1 1 1s1-.45 1-1-.45-1-1-1-1 .45-1 1M24.667 68.667c-1.348 1.347-.611 4.937 1.36 6.624 1.931 1.654 2.127 1.643 4.124-.217C33.208 72.226 32.011 68 28.148 68c-1.548 0-3.115.3-3.481.667M91 72.094c0 .498.9.906 2 .906s2-.173 2-.383c0-.211-.9-.619-2-.907-1.1-.287-2-.115-2 .384m35.079 6.489c.048 1.165.285 1.402.604.605.289-.722.253-1.585-.079-1.917-.332-.332-.568.258-.525 1.312m-8.569 4.433c.346.559 1.047.758 1.559.441 1.387-.857 1.129-1.457-.628-1.457-.857 0-1.276.457-.931 1.016m-106.902 1.71c-.334.334-.608 1.432-.608 2.441 0 1.289.742 1.833 2.5 1.833 1.375 0 2.5-.567 2.5-1.259 0-1.486-3.511-3.896-4.392-3.015M173.5 89c.34.55.816 1 1.059 1s.441-.45.441-1-.477-1-1.059-1-.781.45-.441 1m-141 1c.34.55.816 1 1.059 1s.441-.45.441-1-.477-1-1.059-1-.781.45-.441 1m200.515.75c-.008 1.237.435 2.25.985 2.25 1.253 0 1.253-1.061 0-3-.784-1.213-.972-1.069-.985.75m-222.379.03c-.303.49-.233 2.057.157 3.481.63 2.309.906 2.443 2.545 1.24 1.011-.743 1.681-2.166 1.488-3.164-.375-1.947-3.282-3.027-4.19-1.557M176 92.071c0 1.069 2.428 3.929 3.334 3.929.263 0-.042-1.121-.678-2.492-1.185-2.554-2.656-3.35-2.656-1.437m49.34 3.484c-.328.856-.119 2.543.464 3.75.954 1.975 1.067 1.819 1.128-1.555.071-3.929-.581-4.828-1.592-2.195M0 97.5c0 .825.444 1.5.987 1.5.542 0 1.598 1.463 2.347 3.25 1.189 2.841 1.883 3.284 5.513 3.524 3.19.211 4.153-.083 4.153-1.264 0-2.338-6.198-7.524-8.25-6.904-.963.291-1.75.048-1.75-.539C3 96.48 2.325 96 1.5 96S0 96.675 0 97.5m103-.5c0 .55.45 1 1 1s1-.45 1-1-.45-1-1-1-1 .45-1 1m57 2c0 .55.702 1 1.559 1s1.281-.45.941-1c-.34-.55-1.041-1-1.559-1s-.941.45-.941 1m22 0c0 .55.45 1 1 1s1-.45 1-1-.45-1-1-1-1 .45-1 1m-6.921 2.583c.048 1.165.285 1.402.604.605.289-.722.253-1.585-.079-1.917-.332-.332-.568.258-.525 1.312M185.158 103c0 1.375.227 1.938.504 1.25.278-.687.278-1.812 0-2.5-.277-.687-.504-.125-.504 1.25m-5.408 3.662c.688.278 1.813.278 2.5 0 .688-.277.125-.504-1.25-.504s-1.937.227-1.25.504m43.889 3.837c-.317.824-.168 2.512.329 3.75.786 1.954.914 1.757.969-1.499.067-3.976-.355-4.709-1.298-2.251M0 112c0 1.289.506 1.998 1.25 1.75.688-.229 1.25-1.017 1.25-1.75 0-.733-.562-1.521-1.25-1.75-.744-.248-1.25.461-1.25 1.75m207.909-.923c-1.025.65-.66.897 1.341.908 2.986.016 3.524-.474 1.409-1.285-.737-.283-1.975-.113-2.75.377M5 112c0 .55.45 1 1 1s1-.45 1-1-.45-1-1-1-1 .45-1 1m242-.469c0 1.599 2.212 4.456 3.05 3.938 1.522-.94 1.105-2.316-1.05-3.469-1.1-.589-2-.8-2-.469m-92.25 4.131c.688.278 1.813.278 2.5 0 .688-.277.125-.504-1.25-.504s-1.937.227-1.25.504m44 0c.688.278 1.813.278 2.5 0 .688-.277.125-.504-1.25-.504s-1.937.227-1.25.504m49.4 2.288c.43 1.289 1.801 1.521 1.925.325.041-.399-.465-.905-1.125-1.125-.66-.22-1.02.14-.8.8m4.042.125c.197.591.786 1.075 1.308 1.075s1.111-.484 1.308-1.075c.197-.591-.391-1.075-1.308-1.075s-1.505.484-1.308 1.075M4.371 119.474c-.311.811.121 2.161.96 3 3.132 3.131 5.013.88 2.277-2.724-1.622-2.137-2.494-2.211-3.237-.276M223 122.5c0 .825.436 1.5.969 1.5.532 0 .709-.675.393-1.5-.317-.825-.753-1.5-.969-1.5-.216 0-.393.675-.393 1.5m23.032-.75c.078 1.844 2.765 4.047 5.731 4.698 2.762.607 3.15 1.049 2.655 3.022-.319 1.272-.094 2.612.501 2.98 1.447.894 1.41-3.635-.057-6.853-1.31-2.876-8.93-6.196-8.83-3.847M199 123c0 .55.45 1 1 1s1-.45 1-1-.45-1-1-1-1 .45-1 1m0 5.5c0 1.925.36 3.5.799 3.5.44 0 .616-1.575.391-3.5-.225-1.925-.585-3.5-.799-3.5-.215 0-.391 1.575-.391 3.5m-170.921 5.083c.048 1.165.285 1.402.604.605.289-.722.253-1.585-.079-1.917-.332-.332-.568.258-.525 1.312M11.2 138.2c-1.915 1.915-1.399 4.44 1.265 6.185 3.191 2.091 3.789 2.039 5.355-.468 2.539-4.067-3.261-9.076-6.62-5.717m157.343.731c-.317.512-.118 1.213.441 1.559.559.345 1.016-.074 1.016-.931 0-1.757-.6-2.015-1.457-.628m81.829 2.543c-.378.983.116 2.168 1.253 3.007 2.162 1.596 3.724.568 3.207-2.113-.457-2.372-3.648-3.012-4.46-.894M187 144.059c0 .582.45.781 1 .441s1-.816 1-1.059-.45-.441-1-.441-1 .477-1 1.059M180.5 150c.34.55.816 1 1.059 1s.441-.45.441-1-.477-1-1.059-1-.781.45-.441 1m4.313 3.683c.721.289 1.584.253 1.916-.079.332-.332-.258-.568-1.312-.525-1.165.048-1.402.285-.604.604m59.888-.051c-1.406 1.406-.642 2.368 1.882 2.368 1.622 0 2.429-.465 2.167-1.25-.481-1.446-3.02-2.147-4.049-1.118M12 158.073c0 2.563 3.31 2.272 3.812-.334.231-1.2-.308-1.739-1.739-1.739S12 156.642 12 158.073m215.813-1.39c.721.289 1.584.253 1.916-.079.332-.332-.258-.568-1.312-.525-1.165.048-1.402.285-.604.604m12.875.963c-1.305 1.304-.682 2.354 1.395 2.354 1.164 0 1.909-.524 1.688-1.187-.487-1.462-2.157-2.094-3.083-1.167M12.556 161.91c-1.07 1.73.533 3.879 2.509 3.363 2.578-.674 2.573-4.273-.006-4.273-1.068 0-2.194.409-2.503.91m3.875 4.202c-.378.611-.259 1.399.264 1.75s1.241 1.425 1.597 2.388c.355.963 1.057 1.75 1.56 1.75 1.018 0 2.23-5.058 1.497-6.244-.711-1.15-4.141-.902-4.918.356m205.236-.445c-1.03 1.029-.789 4.14.377 4.86 1.631 1.008 3.806-1.386 3.236-3.564-.507-1.94-2.32-2.59-3.613-1.296m10.774 1.774c-1.521 1.13-1.71 1.819-.874 3.184 1.817 2.967 4.08 3.913 5.849 2.445 2.165-1.797 1.991-4.782-.35-6.035-2.434-1.302-2.309-1.313-4.625.406m-210.767 6.78c-2.105.558-4.066 1.636-4.357 2.396-.292.761-1.645 1.383-3.007 1.383-1.551 0-2.311.467-2.034 1.25.243.688 1.724 1.152 3.291 1.033s3.62.481 4.561 1.333c1.559 1.411 1.813 1.363 2.828-.533.613-1.146 1.725-2.083 2.472-2.083 1.659 0 2.716-2.461 1.934-4.5-.645-1.679-.445-1.669-5.688-.279m193.71 9.221c-1.689 4.402 3.565 7.715 6.302 3.973 1.085-1.484 1.028-2.074-.349-3.595-1.972-2.18-5.183-2.384-5.953-.378m-188.69 1.197c-.799.799.104 2.361 1.365 2.361.518 0 .941-.675.941-1.5 0-1.546-1.18-1.987-2.306-.861M23 189c0 .55.9 1 2 1s2-.45 2-1-.9-1-2-1-2 .45-2 1m150.079 10.583c.048 1.165.285 1.402.604.605.289-.722.253-1.585-.079-1.917-.332-.332-.568.258-.525 1.312M65 210.5c0 2.972 2.53 3.403 3.275.558.571-2.185.016-3.058-1.942-3.058-.755 0-1.333 1.083-1.333 2.5m27 7c0 .825.45 1.5 1 1.5s1-.675 1-1.5-.45-1.5-1-1.5-1 .675-1 1.5m77 2c0 .917.484 1.505 1.075 1.308.591-.197 1.075-.786 1.075-1.308s-.484-1.111-1.075-1.308c-.591-.197-1.075.391-1.075 1.308m-42.361 9.194c-1.126 1.126-.685 2.306.861 2.306.825 0 1.5-.423 1.5-.941 0-1.261-1.562-2.164-2.361-1.365m37.748 1.871c.461 1.203.137 1.419-1.398.931-1.347-.427-2.204-.1-2.627 1.002-.955 2.49 1.039 3.792 4.607 3.009 3.857-.847 5.045-3.293 2.502-5.152-2.471-1.807-3.823-1.715-3.084.21M140 232.059c0 .582.45.781 1 .441s1-.816 1-1.059-.45-.441-1-.441-1 .477-1 1.059m6.5.941c-.729 1.18.217 3 1.559 3 .518 0 .941-.9.941-2 0-2.109-1.455-2.691-2.5-1m6.167 2.667c-.367.366-.667 1.748-.667 3.069 0 1.917.453 2.338 2.24 2.084 2.559-.366 3.63-3.653 1.608-4.935-1.642-1.041-2.313-1.087-3.181-.218m-26.417.995c-1.741.703-1.566 2.338.25 2.338.825 0 1.5-.675 1.5-1.5s-.112-1.464-.25-1.421c-.138.043-.812.306-1.5.583"/><path fill="#1976D2" fill-opacity=".433" fill-rule="evenodd" d="M94 16.5c0 .833.889 1.5 2 1.5s2-.667 2-1.5-.889-1.5-2-1.5-2 .667-2 1.5m31-.5c0 .55-1.958 1-4.351 1s-5.655.403-7.25.896c-1.594.493-5.486 1.66-8.647 2.593-3.162.933-6.001 2.104-6.309 2.603-.309.5-1.402.908-2.431.908-1.028 0-2.464.588-3.191 1.306-.726.718-2.896 2.181-4.821 3.25-1.925 1.069-3.808 2.373-4.184 2.896-1.01 1.407.166 2.769 1.837 2.128.81-.311 1.181-.121.84.431-.341.552.506.989 1.917.989 1.836 0 2.37-.41 1.952-1.5-.798-2.079 2.991-1.985 4.736.118 1.159 1.396.97 1.916-1.377 3.788-3.745 2.986-3.46 4.594.814 4.594 3.601 0 6.949 1.703 11.349 5.773l2.457 2.272-3.106 1.172c-1.708.645-3.697 2.286-4.42 3.647-.723 1.36-3.263 4.37-5.644 6.688-4.078 3.972-4.506 4.15-7.406 3.081-2.388-.879-3.173-.853-3.505.117-.235.688-1.96 1.25-3.835 1.25-2.325 0-3.805.636-4.657 2-1.62 2.594-6.332 2.819-5.234.25.412-.963.964-3.006 1.227-4.541.302-1.764 2.275-4.307 5.359-6.907 2.684-2.263 4.88-4.72 4.88-5.459 0-.738.397-1.343.881-1.343.485 0 1.403-2.072 2.041-4.604.79-3.14 1.783-4.768 3.119-5.117 2.915-.762 2.371-1.991-1.108-2.502-2.635-.387-3.551.14-6.5 3.739C78.545 43.821 77 46.152 77 46.698c0 .546-.9 1.807-2 2.802-1.1.995-2 2.343-2 2.994C73 53.852 68.776 56 66.108 56c-3.275 0-6.671 5.312-3.972 6.212.803.268.838.952.117 2.333-.561 1.075-1.476 3.08-2.034 4.455a425.768 425.768 0 0 1-2.512 6c-.823 1.925-1.805 4.966-2.183 6.759-.378 1.792-1.1 3.003-1.605 2.691-1.34-.828-1.125-5.215.279-5.683.915-.305.888-1.145-.116-3.57-1.546-3.732-3.082-3.302-3.082.862C51 77.677 50.55 79 50 79s-1.014.787-1.032 1.75c-.03 1.667-.095 1.667-1.36 0-.731-.962-1.652-1.75-2.047-1.75-1.363 0-8.596 7.962-9.578 10.544-.766 2.016-1.442 2.445-3.047 1.936-1.877-.596-1.945-.467-.759 1.433C33.704 95.358 35 95.627 35 93.5c0-.825.45-1.5 1-1.5 2.095 0 .881 3.097-1.671 4.26-2.109.961-2.757.956-3.083-.022-.227-.681-1.163-1.224-2.079-1.206-1.516.029-1.508.152.083 1.36C32.612 98.944 30.888 105 26.8 105c-1.219 0-1.8-.753-1.8-2.333 0-3.138-.935-3.874-2.69-2.119-1.27 1.269-1.27 1.635-.002 2.903 2.066 2.066 3.081 8.375 1.629 10.125-.693.835-2.992 1.424-5.559 1.424-2.408 0-4.378.45-4.378 1s1.295 1 2.878 1c3.343 0 5.431 2.03 4.523 4.397-.489 1.274-1.402 1.506-4.006 1.017-4.929-.924-5.773 1.956-1.544 5.267 1.732 1.355 3.149 3.106 3.149 3.891 0 .786.9 1.428 2 1.428 2.136 0 2.684 1.459.951 2.53-.72.446-.694 1.075.086 2.014.882 1.064 1.544 1.11 2.984.211 1.017-.635 1.625-1.519 1.35-1.964-1.139-1.843.827-4.904 2.955-4.599 2.515.36 3.645 3.808 1.247 3.808-.965 0-1.573.87-1.573 2.253 0 1.24-1.35 3.528-3 5.085-3.985 3.761-4.011 6.662-.059 6.662 1.618 0 3.224-.457 3.569-1.016a1.192 1.192 0 0 1 1.634-.395c.595.368.136 1.548-1.123 2.889-1.902 2.025-1.953 2.334-.471 2.903.942.361 1.415 1.268 1.095 2.101-.309.806.206 1.901 1.147 2.434 1.579.895 1.557 1.084-.292 2.494-1.1.84-2.562 1.541-3.25 1.558-.687.018-1.236 1.044-1.218 2.282.029 2.084.13 2.121 1.36.5 1.76-2.319 2.608-2.21 2.608.337 0 1.4.987 2.459 3 3.219 1.65.623 3 1.514 3 1.981 0 .466.844.58 1.876.252 3.33-1.057 3.354 3.086.039 6.716-3.242 3.549-3.488 4.311-1.665 5.162.994.463.989.704-.021 1.173-.699.325-1.925 1.855-2.724 3.4-1.276 2.468-1.271 2.959.04 4.047 1.203.998 1.834.93 3.252-.354.968-.875 2.647-1.574 3.732-1.551 1.084.022 2.983-.276 4.221-.662 1.816-.568 2.25-.319 2.25 1.291 0 1.097.634 2.521 1.41 3.164 1.118.928 1.734.708 2.973-1.061 1.449-2.069 1.764-2.127 4.34-.798 1.527.789 3.332 2.175 4.011 3.08.679.906 3.604 2.202 6.5 2.881 2.896.679 5.839 1.69 6.54 2.246.701.557 1.548.739 1.882.405 1.26-1.26 4.344 1.478 4.344 3.857 0 1.356.45 2.465 1 2.465s1-.45 1-1c0-1.455 5.741-1.228 6.341.25.382.944.789.883 1.659-.25s1.277-1.194 1.659-.25c.279.687 1.34 1.25 2.357 1.25 1.017 0 2.135.9 2.484 2 .349 1.1 1.279 2 2.067 2 .908 0 1.433 1.042 1.433 2.839 0 2.035.687 3.153 2.424 3.944 2.942 1.341 4.738-.265 4.338-3.878-.209-1.888.24-2.395 2.238-2.528 2.388-.158 6 2.073 6 3.707 0 .425-.787 1.562-1.75 2.525-1.667 1.669-1.643 1.725.5 1.165 2.316-.604 3.271 1.477 1.25 2.726-2.388 1.476-.838 2.735 2.666 2.167 2.763-.449 4.013-.173 5.074 1.119 1.294 1.575 1.37 1.534.937-.499-.259-1.218.106-2.692.81-3.276.987-.819 1.432-.254 1.942 2.463.399 2.128 1.242 3.526 2.126 3.526.806 0 2.201.86 3.102 1.912.9 1.052 2.269 1.67 3.041 1.374 1.076-.413 1.25.074.744 2.088-.829 3.305.007 3.323 3.025.067 2.077-2.24 2.627-2.399 4.427-1.275 1.623 1.013 2.314 1.026 3.281.059.674-.674 1.959-1.225 2.856-1.225.897 0 2.249-1.155 3.004-2.566.789-1.473 2.564-2.804 4.169-3.125 3.167-.633 3.41-1.117 1.353-2.699-1.166-.896.363-2.265 7.938-7.11 8.148-5.211 9.39-6.373 9.444-8.833.075-3.489-1.891-3.143-3.744.657-.717 1.472-1.955 2.676-2.75 2.676-.795 0-1.445.369-1.445.819 0 .451-2.279 1.44-5.063 2.198-2.785.759-5.287 1.74-5.559 2.181-.72 1.165-7.378.986-7.378-.198 0-.55-.752-1-1.671-1-.92 0-3.676-2.091-6.125-4.648-4.375-4.565-4.444-4.742-3.901-10 .304-2.943.248-5.357-.125-5.363-.373-.006-2.815-1.982-5.428-4.391-3.98-3.671-4.75-4.966-4.75-7.99 0-3.445-.155-3.608-3.441-3.608-1.893 0-3.695-.411-4.005-.913-.31-.502-6.223-.927-13.14-.945-8.418-.021-13.064-.437-14.053-1.258C89.712 170.686 82 160.015 82 158.548c0-.787-.506-1.743-1.124-2.125-1.239-.765-.494-11.668 1.08-15.808.494-1.299 2.476-3.337 4.405-4.529 1.929-1.193 4.097-3.499 4.817-5.127.721-1.627 1.806-2.959 2.411-2.959.606 0 1.9-.883 2.877-1.963 1.925-2.126 1.457-5.037-.81-5.037-1.835 0-2.869-5.308-1.656-8.5.79-2.077 1.611-2.5 4.853-2.5 4.978 0 6.908-2.034 5.294-5.577-1.533-3.364-1.511-3.423 1.269-3.423 1.624 0 3.455-1.311 5.584-4 1.746-2.205 4.039-4 5.109-4 1.362 0 2.122-.906 2.548-3.034.588-2.943.65-2.973 2.032-1 1.848 2.639 8.372 2.818 10.406.284 4.285-5.337 4.806-8.206 1.829-10.065-1.659-1.036-1.837-1.585-.888-2.728.653-.787.884-2.222.514-3.188-.602-1.569-.878-1.491-2.59.738-2.102 2.735-2.519 6.034-.96 7.593.667.667.584 1.897-.25 3.692-1.505 3.24-4.678 3.55-7.25.708-.995-1.1-2.592-2-3.548-2-1.429 0-2.952-1.83-2.952-3.548 0-.212 1.463-1.895 3.25-3.74a514.899 514.899 0 0 0 7.326-7.783c5.039-5.475 7.793-7.125 10.686-6.402 1.231.308 4.007.671 6.169.808 4.276.271 5.886 2.087 2.61 2.944-2.609.682-2.695 3.721-.106 3.721 1.304 0 2.348-1.141 3.2-3.496.695-1.923 2.056-3.747 3.025-4.055.968-.307 3.466-2.559 5.55-5.004C158.795 55 161.062 53 161.75 53c1.699 0 1.575-1.818-.25-3.643-2.105-2.105-1.866-3.686.465-3.076 2.305.602 3.898-2.818 2.134-4.582-.604-.604-1.099-2.107-1.099-3.34 0-1.233-.498-2.549-1.107-2.925-.771-.477-.695-.938.25-1.523 1.107-.684 1.034-1.162-.396-2.593-1.672-1.671-1.826-1.65-3.307.464-1.468 2.096-4.46 3.089-4.423 1.468.01-.413 1.086-1.762 2.391-3 2.581-2.446 7.451-2.991 9.392-1.05 1.388 1.388 1.665-.317.285-1.75-.504-.522-1.066-2.041-1.25-3.374-.449-3.248-4.995-5.738-12.085-6.62-3.162-.393-5.75-1.106-5.75-1.585 0-.479-4.95-.871-11-.871-6.667 0-11 .394-11 1m-45 9c0 .55.45 1 1 1s1-.45 1-1-.45-1-1-1-1 .45-1 1m-20.47 5.951c-.863 1.397.237 3.049 2.029 3.049 1.836 0 1.851-1.415.03-2.926-.965-.801-1.616-.839-2.059-.123m7.47 2.58c0 .843-.675 1.791-1.5 2.107-1.72.66-1.831 1.291-.573 3.278.722 1.141 1.483.828 3.923-1.612 2.263-2.263 2.74-3.314 1.888-4.166-1.627-1.627-3.738-1.405-3.738.393m12.2.669c-1.847 1.847-1.436 2.8 1.206 2.8 1.914 0 2.3-.409 1.884-2-.601-2.296-1.39-2.5-3.09-.8m-27.047 7.438c-1.841 1.925-3.094 3.754-2.784 4.065.572.571 7.631-5.999 7.631-7.103 0-1.331-1.671-.283-4.847 3.038M61 43c0 .55.45 1 1 1s1-.45 1-1-.45-1-1-1-1 .45-1 1m4.912 1.275C62.992 46.836 57 55.344 57 56.93c0 1.975 2.108 1.095 4.67-1.95 1.397-1.66 3.281-2.898 4.185-2.75 1.061.174 1.761-.549 1.972-2.038.258-1.817.616-2.069 1.683-1.183 1.039.861 1.84.641 3.423-.942C75.629 45.371 75.551 44 72.7 44c-1.265 0-2.739-.439-3.275-.975-.634-.634-1.864-.196-3.513 1.25m86.305.975c-2.033 2.474-1.876 8.75.22 8.75 1.074 0 1.299-.853.89-3.373-.321-1.975-.087-3.657.563-4.059 1.321-.816 1.479-2.568.232-2.568-.482 0-1.339.563-1.905 1.25m-25.641 5.5c-.416.413-1.689.75-2.828.75-1.139 0-2.243.507-2.452 1.127-.677 2.006 2.773 2.412 5.241.618 2.421-1.76 3.167-3.245 1.63-3.245-.459 0-1.174.337-1.591.75M39.105 67.373c-1.308 1.577-.574 4.233 1.378 4.982.731.281 2.123-.367 3.092-1.438 1.688-1.865 1.681-2.011-.156-3.401-2.412-1.825-2.904-1.842-4.314-.143M26.2 69.2c-1.582 1.582-1.519 3.291.173 4.695 1.782 1.479 4.627.371 4.627-1.802C31 70.446 29.207 68 28 68c-.33 0-1.14.54-1.8 1.2M90 72.5c0 .988.988 1.5 2.893 1.5 1.649 0 3.141-.645 3.469-1.5.443-1.156-.221-1.5-2.893-1.5-2.417 0-3.469.455-3.469 1.5M29 82.845c0 1.015.855 2.619 1.901 3.565 1.806 1.635 2.004 1.608 4-.534 2.514-2.699 2.607-3.467.517-4.269C32.121 80.342 29 80.944 29 82.845m74.743 1.745c-.295.295-.299 2.303-.009 4.463.322 2.401.044 4.51-.715 5.425-.684.823-.982 2.175-.664 3.005.507 1.321 1.004 1.291 3.994-.237l3.416-1.746-1.883-2.654c-1.035-1.46-1.882-3.796-1.882-5.191 0-2.491-1.201-4.121-2.257-3.065M11.5 87c-.34.55.11 1 1 1s1.34-.45 1-1c-.34-.55-.79-1-1-1-.21 0-.66.45-1 1m85.501 5.498c-.736 1.375-1.058 2.778-.717 3.12.892.891 3.716-2.184 3.716-4.047 0-2.355-1.489-1.894-2.999.927m75.978-.459c-.879 1.642-.777 2.621.473 4.528.877 1.338 2.034 2.433 2.571 2.433.537 0 .977.845.977 1.878 0 2.362 2.37 4.391 4.619 3.955 3.039-.59 2.542-2.436-1.836-6.823-2.356-2.36-4.159-4.869-4.006-5.575.487-2.264-1.637-2.565-2.798-.396M12 92.5c.685.825 1.695 1.5 2.245 1.5.558 0 .449-.663-.245-1.5-.685-.825-1.695-1.5-2.245-1.5-.558 0-.449.663.245 1.5m216 8.941c0 3.543-.45 6.719-1 7.059-.55.34-1 2.14-1 4 0 1.86.45 3.66 1 4 .55.34 1 1.941 1 3.559s.45 2.941 1 2.941 1 .9 1 2c0 1.481-.667 2-2.571 2-3.119 0-4.233-1.1-7.342-7.25-1.809-3.579-2.964-4.75-4.685-4.75-1.256 0-2.562-.45-2.902-1-1.124-1.819-6.963-1.132-8.5 1-.793 1.1-2.441 2-3.662 2-3.743 0-3.894 2.89-.221 4.24 1.249.46 1.555 1.736 1.347 5.609-.261 4.831-.594 5.348-9.117 14.13-4.866 5.014-8.997 9.544-9.18 10.068-.735 2.101 3.527.761 6.529-2.052 4.217-3.952 5.675-3.877 4.961.255-1.416 8.188-2.061 10.268-3.749 12.079-.995 1.068-2.477 3.35-3.294 5.071-.816 1.722-2.639 4.214-4.049 5.539-3.225 3.03-3.63 8.97-.665 9.745 1.415.37 1.9 1.4 1.9 4.036 0 3.109 1.339 5.217 3.343 5.265 1.384.033 1.823-3.322.624-4.774-1.01-1.224-1.013-1.622-.017-1.957 1.98-.667 1.452-2.254-.75-2.254-2.936 0-2.439-1.318 1.087-2.878 2.532-1.121 3.518-1.136 5.484-.084 1.318.705 2.659 2.11 2.98 3.122.648 2.041 4.057 2.516 4.678.653.255-.765 1.176-.408 2.584 1 2.935 2.935 5.021 2.755 6.274-.543.571-1.501 1.526-3.031 2.121-3.399 1.862-1.151-.019-3.871-2.677-3.871-3.154 0-3.246-1.161-.204-2.57 1.577-.731 3.028-.751 4.568-.064 1.691.755 2.471.661 3.111-.376 1.418-2.294-.765-4.99-4.041-4.99-3.497 0-3.79-1.004-.831-2.852 1.647-1.028 2.304-1.057 2.88-.126.506.819 2.791-.757 7.112-4.907 5.132-4.93 6.997-6.115 9.62-6.115 3.357 0 3.493-.221 3.675-6 .067-2.118.518-2.469 2.95-2.295 1.58.113 3.717.97 4.75 1.905 1.034.935 1.879 1.201 1.879.592 0-1.791-2.248-6.202-3.161-6.202-.461 0-.839-.675-.839-1.5 0-1.738 1.153-1.947 2.626-.474.701.701 1.89.225 3.756-1.504 2.84-2.632 2.715-3.959-.597-6.347-1.011-.729-1.714-2.079-1.562-3 .179-1.08-.405-1.677-1.641-1.679-1.055-.003-2.105-.565-2.333-1.25-.229-.685.082-1.246.691-1.246.684 0 .516-.9-.44-2.359-.85-1.298-1.285-3.038-.966-3.869.369-.962-.136-1.696-1.394-2.025-1.621-.424-1.973-1.379-1.973-5.354 0-2.661-.488-5-1.084-5.199-.595-.198-1.083-1.898-1.083-3.777 0-2.362-.461-3.417-1.492-3.417-.82 0-2.053-.9-2.74-2-2.444-3.913-3.768-2.352-3.768 4.441m-71.982-1.485c-1.136 2.743-1.378 2.854-3.381 1.542-3.267-2.141-5.048-.5-4.224 3.892.697 3.713 2.099 4.417 5.351 2.686.955-.509 3.894-1.473 6.532-2.143 3.5-.889 4.713-1.653 4.49-2.826-.169-.884-1.366-1.758-2.662-1.942-1.296-.184-2.581-1.196-2.856-2.25-.714-2.73-1.836-2.371-3.25 1.041M4.37 101.25c.331 1.237.609 2.498.616 2.802.017.654 7.014.955 7.014.301 0-.247-1.238-1.538-2.75-2.869-3.563-3.137-5.685-3.238-4.88-.234M33 100.5c0 .825.402 1.5.893 1.5s1.152-.675 1.469-1.5c.35-.914.001-1.5-.893-1.5-.808 0-1.469.675-1.469 1.5m197.496 5.519c-.796 3.625-.427 4.276 1.915 3.377 1.113-.427 1.593-1.527 1.393-3.197-.442-3.703-2.51-3.816-3.308-.18M125 107.929c0 1.365 2.716 3.846 5.006 4.573 1.463.464 1.977 1.481 1.931 3.815-.056 2.775-.174 2.911-.921 1.061-.471-1.166-1.933-2.391-3.248-2.721-1.315-.33-3.713-1.741-5.33-3.134-1.744-1.504-3.548-2.271-4.438-1.887-.825.356-2.773.865-4.329 1.131-1.557.266-3.102 1.214-3.435 2.108-.332.894-1.421 2.213-2.42 2.932-.999.718-1.816 1.967-1.816 2.774 0 .808-1.081 1.88-2.403 2.382-2.635 1.002-4.151 2.816-3.172 3.795.344.344 2.193.059 4.109-.634 1.917-.693 6.593-1.425 10.393-1.626l6.908-.366 1.597 3.367c1.316 2.772 2.133 3.351 4.629 3.28 1.668-.047 3.551.433 4.185 1.067 1.95 1.95 6.454 1.409 7.044-.846.464-1.777 1.364-2 8.057-2 4.144 0 7.813-.45 8.153-1 .34-.55 1.666-1 2.948-1 1.873 0 2.459-.69 2.989-3.517.851-4.536.158-5.524-3.476-4.95l-5.961.942c-2.192.347-3 .078-3-1 0-.811-.45-1.475-1-1.475s-1-.675-1-1.5c0-1.636-2.7-1.976-4.853-.612-1.074.681-1.11 1.313-.173 3.063.649 1.213.907 2.918.572 3.789-.484 1.261-1.314.812-4.077-2.204-1.908-2.083-3.469-4.294-3.469-4.913 0-.62-1.912-2.139-4.25-3.377-4.659-2.468-5.75-2.718-5.75-1.317m115.436 2.174c-.413.669-.061 1.698.795 2.324.844.617 1.761 2.012 2.036 3.098.339 1.336.539.962.617-1.153.129-3.473-2.176-6.327-3.448-4.269M0 112c0 .55.45 1 1 1s1-.45 1-1-.45-1-1-1-1 .45-1 1m126 8c0 .55.702 1 1.559 1s1.281-.45.941-1c-.34-.55-1.041-1-1.559-1s-.941.45-.941 1m59.247.25c.764 2.311 5.56 4.361 7.435 3.179 3.201-2.019 2.888-3.793-.548-3.106-1.798.36-3.134.211-3.134-.348 0-.536-.937-.975-2.083-.975-1.221 0-1.912.518-1.67 1.25M249 124c0 .55.675 1 1.5 1s1.5-.45 1.5-1-.675-1-1.5-1-1.5.45-1.5 1m-86 7.545c0 1.968 4.44 6.455 6.388 6.455.846 0 1.615 1.115 1.796 2.606.227 1.874 1.527 3.284 4.629 5.02 2.372 1.328 4.704 2.173 5.182 1.877 1.517-.937-1.663-5.594-5.649-8.273-2.116-1.422-5.141-4.08-6.723-5.908-3.054-3.525-5.623-4.337-5.623-1.777m75 .396c0 .518.45 1.219 1 1.559.55.34 1-.084 1-.941s-.45-1.559-1-1.559-1 .423-1 .941m4.5.059c-.34.55.11 1 1 1s1.34-.45 1-1c-.34-.55-.79-1-1-1-.21 0-.66.45-1 1m-206.952 2.25c-.419.963-.419 2.537 0 3.5.725 1.667.781 1.667 1.18 0 .23-.963.23-2.537 0-3.5-.399-1.667-.455-1.667-1.18 0m209.814.25c-.317.825-1.229 1.5-2.028 1.5-.799 0-1.15.489-.78 1.087.452.731 1.002.757 1.681.078.555-.555 1.629-.771 2.387-.48.902.346 1.378-.199 1.378-1.578 0-2.423-1.784-2.834-2.638-.607M11.91 139.608c-1.134 1.367-1.048 1.818.569 3 2.442 1.786 3.444 1.757 4.164-.121C17.218 140.99 15.457 138 14 138c-.415 0-1.356.724-2.09 1.608m239.319 2.58c.618 1.854 2.771 2.161 2.771.395 0-.87-.713-1.583-1.583-1.583-.871 0-1.406.534-1.188 1.188m-213.441.403c-1.618 2.487 6.377 20.762 14.236 32.545 5.04 7.556 11.898 15.275 12.784 14.39.307-.308.026-1.092-.625-1.743-.651-.65-1.183-2.892-1.183-4.98 0-3.333-.856-4.698-7-11.166-3.85-4.053-7-7.673-7-8.045 0-.372-.9-1.642-2-2.822-1.1-1.181-2-2.936-2-3.9 0-.963-.45-2.03-1-2.37-.55-.34-1-1.407-1-2.37 0-.964-.861-2.677-1.913-3.806s-2.065-3.126-2.251-4.438c-.195-1.375-.639-1.923-1.048-1.295M232 156.878c0 1.032.67 2.433 1.489 3.113.819.68 1.242 1.635.941 2.122-.301.488-.071.887.511.887s1.059-1.8 1.059-4c0-3.333-.333-4-2-4-1.29 0-2 .667-2 1.878M226 161c0 2.543.385 3 2.531 3 1.393 0 2.793-.681 3.112-1.513.753-1.962-1.366-4.487-3.765-4.487-1.42 0-1.878.732-1.878 3m-212 2c0 .55.45 1 1 1s1-.45 1-1-.45-1-1-1-1 .45-1 1m3.991 4.489c.68.819 1.642 1.238 2.139.931 1.276-.789.055-2.42-1.811-2.42-1.272 0-1.333.278-.328 1.489M222 168.5c0 .825.45 1.5 1 1.5s1-.675 1-1.5-.45-1.5-1-1.5-1 .675-1 1.5m10 .811c0 2.099 2.479 3.826 4.422 3.08 2.573-.987 1.43-3.848-1.681-4.207-1.869-.216-2.741.143-2.741 1.127m-207.457 6.62c-.683 1.105.894 2.299 1.818 1.375.95-.951.773-2.306-.302-2.306-.518 0-1.2.419-1.516.931M19 177.893c0 1.899 2.283 3.491 3.402 2.371C23.837 178.83 22.907 176 21 176c-1.296 0-2 .667-2 1.893m22.036 1.563C39.537 181.263 40.5 183 43 183c2.301 0 3.209-1.292 2.396-3.41-.762-1.986-2.771-2.048-4.36-.134M206 179c0 .55.45 1 1 1s1-.45 1-1-.45-1-1-1-1 .45-1 1m10.364 5.493c-.346.903-.15 2.121.436 2.707 1.524 1.524 4.41.131 4.012-1.935-.443-2.302-3.647-2.858-4.448-.772m-21.316 4.949c-.68.82-1.045 2.067-.81 2.772.27.81.885.424 1.675-1.052 1.471-2.747.911-3.859-.865-1.72m-16.318 4.043c-3.329 2.962-4.984 6.564-2.98 6.486 1.211-.048 6.852-5.491 7.535-7.272 1.123-2.926-.747-2.604-4.555.786m-101.254 2.59c-.362 1.142-.478 2.256-.257 2.477.765.765 4.812-2.693 4.239-3.62-1.02-1.65-3.304-.994-3.982 1.143M191 194.901c0 .496-1.575 1.831-3.5 2.966-3.402 2.008-4.633 4.133-2.394 4.133 1.468 0 8.894-5.915 8.894-7.084 0-.504-.675-.916-1.5-.916s-1.5.406-1.5.901M90 201.5c0 .825.45 1.5 1 1.5s1-.675 1-1.5-.45-1.5-1-1.5-1 .675-1 1.5m73 20.878c0 1.68 2.799 4.156 3.691 3.265.353-.354.117-.643-.524-.643-.642 0-1.167-.9-1.167-2s-.45-2-1-2-1 .62-1 1.378m-13.333.289c-.956.955-.822 2.333.226 2.333.491 0 1.152-.675 1.469-1.5.585-1.524-.481-2.048-1.695-.833m2.583 6.038c-1.52.561-1.68 4.295-.184 4.295 1.906 0 4.934-2.039 4.934-3.322s-2.516-1.798-4.75-.973M162 234c0 .55.675 1 1.5 1s1.5-.45 1.5-1-.675-1-1.5-1-1.5.45-1.5 1m-9 4c0 .55.675 1 1.5 1s1.5-.45 1.5-1-.675-1-1.5-1-1.5.45-1.5 1"/><path fill="#1976D2" fill-opacity=".166" fill-rule="evenodd" d="M95 16c0 .55.45 1 1 1s1-.45 1-1-.45-1-1-1-1 .45-1 1m18.5 3c-.34.55-2.166 1-4.059 1-1.893 0-3.441.45-3.441 1s-1.35 1-3 1-3 .432-3 .96-1.819 1.505-4.041 2.171c-2.438.73-3.857 1.693-3.575 2.427.308.804-.231 1.033-1.593.677-1.464-.383-1.926-.134-1.598.863.254.771 1.887 1.543 3.631 1.715 2.434.241 3.318.903 3.808 2.855.505 2.012.055 3.006-2.157 4.77l-2.795 2.229h2.946c3.408 0 11.374 3.267 11.374 4.665 0 .521.748 1.495 1.662 2.163 2.06 1.506 1.108 4.505-1.43 4.505-1.045 0-4.343 3.016-7.686 7.03-5.556 6.669-6.066 7.025-9.951 6.944-6.429-.135-10.905 1.106-13.32 3.692-1.924 2.061-2.498 2.212-4.25 1.118C68.95 69.488 68.203 66 70 66c.55 0 1-1.111 1-2.469 0-1.687 1.901-4.365 6-8.451 4.103-4.09 6-6.763 6-8.454 0-1.36 1.165-3.857 2.589-5.549 2.359-2.804 2.418-3.077.667-3.077C84.36 38 78 44.887 78 46.941c0 .583-.399 1.059-.886 1.059s-1.627 1.561-2.533 3.47c-1.282 2.703-2.577 3.733-5.863 4.664-5.096 1.443-7.21 3.569-5.543 5.576.855 1.031.85 1.665-.017 2.532C62.521 64.879 62 66.435 62 67.7c0 1.265-.45 2.3-1 2.3s-1 1.088-1 2.417c0 1.329-.477 2.575-1.06 2.77-.584.194-1.102 1.807-1.153 3.583-.05 1.777-.473 3.23-.939 3.23-.466 0-.848.873-.848 1.941 0 3.154-1.919 3.403-3.061.398-.744-1.957-.744-3.472.001-5.108 1.274-2.795 1.307-3.231.245-3.231-.448 0-1.566 1.575-2.484 3.5-1.713 3.593-3.701 4.667-3.701 2 0-.825-.502-1.5-1.116-1.5-1.43 0-8.889 7.884-8.869 9.374.02 1.484 1.95 4.451 1.97 3.029C38.993 91.8 39.9 90.268 41 89c1.1-1.268 2-1.787 2-1.153C43 88.481 44.167 89 45.594 89c1.786 0 2.763.648 3.137 2.081.414 1.581 1.051 1.924 2.657 1.427 1.161-.359 2.675-.695 3.362-.747 1.157-.087 1.657-1.186 1.368-3.011-.065-.413.38-.75.989-.75s.877.563.596 1.25c-2.071 5.066-2.075 5.107-.389 4.46.914-.351 1.555-.249 1.424.226s.103.905.52.956C60.815 95.08 73 107.388 73 108.773c0 .891.592 1.214 1.552.845.89-.341 1.291-.173.941.393-.336.544.203 1.021 1.198 1.059 1.615.063 1.594.163-.191.93-1.71.735-1.746.87-.25.93.962.038 1.637.633 1.5 1.32-.138.688.346 1.126 1.074.975.729-.151 1.077.126.774.617-.746 1.207 2.85 4.357 3.893 3.41.457-.414.525-.221.153.429-.372.649-.219 1.463.34 1.809.559.345 1.016.125 1.016-.49 0-2.473 1.802.221 2.993 4.474C89.21 129.821 91 131.622 91 128.5c0-.825.787-1.514 1.75-1.532.963-.017 2.53-.624 3.484-1.349 1.606-1.219 1.514-1.513-1.228-3.956-3.164-2.82-4.939-7.46-3.257-8.52.561-.354 1.201-1.543 1.423-2.643.344-1.707 1.098-1.964 5.148-1.754 4.968.257 7.212-1.614 4.813-4.013-1.907-1.907-1.406-5.038.717-4.482 1.018.266 2.93-.347 4.25-1.362 1.901-1.461 2.049-1.849.709-1.867-.93-.012-1.969.428-2.309.978-.663 1.072-4.79 1.377-5.742.424-.317-.316.361-2.332 1.507-4.479 2.053-3.846 2.056-3.933.172-6.014-1.881-2.08-1.881-2.133.036-3.535 2.661-1.945 3.971-1.285 4.327 2.181.164 1.608 1.104 3.985 2.087 5.283 1.443 1.906 2.156 2.16 3.7 1.323 1.052-.57 2.7-1.281 3.663-1.579.963-.298 1.75-1.365 1.75-2.373 0-1.007.54-2.371 1.2-3.031.933-.933.756-1.2-.8-1.2-2.476 0-4.4-1.826-4.4-4.176 0-2.268 16.302-18.785 18.698-18.943 4.945-.328 13.84.415 14.123 1.18.551 1.486 9.179-4.31 9.179-6.166 0-.416-1.012-.9-2.25-1.075-1.238-.176-2.65-1.23-3.139-2.343-.49-1.113-3.054-3.515-5.698-5.338-2.645-1.824-7.775-6.447-11.402-10.274-3.626-3.827-9.017-9.154-11.98-11.837-5.35-4.845-5.373-4.89-3.209-6.401 2.148-1.501 2.135-1.523-1.013-1.575-1.755-.028-3.469.398-3.809.948m33.421.585c2.431.763 5.356 2.236 6.5 3.273 1.143 1.038 3.204 2.112 4.579 2.386 1.375.274 3.287.83 4.25 1.234 1.394.587 1.75.231 1.75-1.749 0-3.15-2.02-4.835-5.931-4.946-1.688-.048-3.069-.469-3.069-.935 0-.466-2.812-.804-6.25-.749l-6.25.099 4.421 1.387M153 29c0 .55.45 1 1 1s1-.45 1-1-.45-1-1-1-1 .45-1 1m-65 4.059c0 .582.45.781 1 .441s1-.816 1-1.059S89.55 32 89 32s-1 .477-1 1.059M159 33c0 .55-.83 1-1.845 1-2.068 0-5.837 3.651-4.82 4.669.361.361 1.805.133 3.208-.507 3.674-1.673 4.558-1.452 4.339 1.088-.351 4.087.1 5.75 1.559 5.75.793 0 1.696-.412 2.007-.916.731-1.182-1.217-6.321-2.761-7.283-.91-.567-.893-1.214.071-2.77 1.054-1.7 1.013-2.031-.25-2.031-.829 0-1.508.45-1.508 1m-91 1c0 .55.702 1 1.559 1s1.281-.45.941-1c-.34-.55-1.041-1-1.559-1S68 33.45 68 34m-1.921 3.583c.048 1.165.285 1.402.604.605.289-.722.253-1.585-.079-1.917-.332-.332-.568.258-.525 1.312m-1.63 8.699c-4.841 5.774-6.664 11.927-2.01 6.785.962-1.062 2.324-1.711 3.027-1.442 1.476.567 2.753-4.41 1.642-6.396-.522-.933-1.23-.652-2.659 1.053m5.516-.74c-1.916 2.309.267 4.083 2.399 1.951.9-.9 1.636-2.054 1.636-2.564 0-1.477-2.632-1.077-4.035.613M153 49.441c0 .793.403 1.69.895 1.994 1.03.636 2.271-1.936 1.369-2.837-1.073-1.073-2.264-.63-2.264.843m-31.503 1.185c-1.917 1.402-1.427 4.08.912 4.977.799.307 2.947-.489 4.772-1.769 1.826-1.28 3.507-2.441 3.736-2.581.229-.139.094-.575-.299-.969-1.227-1.226-7.287-.999-9.121.342m36.097.27c-.877.969-1.594 2.289-1.594 2.933 0 1.687 1.958 1.443 2.638-.329.317-.825 1.203-1.5 1.969-1.5 1.81 0 1.801-1.629-.013-2.326-.773-.296-2.123.253-3 1.222M144 68c0 .55.423 1 .941 1s1.219-.45 1.559-1c.34-.55-.084-1-.941-1S144 67.45 144 68M40.333 70.528c0 1.729 1.833 1.473 2.438-.34.218-.654-.242-1.188-1.021-1.188-.779 0-1.417.688-1.417 1.528m49.047.924c-.819 2.133.417 3.548 3.097 3.548C96.148 75 98 73.958 98 71.893 98 70.349 97.257 70 93.969 70c-2.602 0-4.229.515-4.589 1.452m40.674 3.946c-1.089 2.036-1.135 3.128-.218 5.142 1.766 3.876-.868 8.46-4.862 8.46-1.636 0-2.974-.525-2.974-1.167 0-.641-.289-.877-.643-.524-1.31 1.311 1.901 3.622 4.596 3.308 3.809-.443 4.743-1.173 6.654-5.202 1.617-3.407 1.599-3.567-.697-6.01-1.862-1.982-2.075-2.685-1.012-3.342.74-.457 1.164-1.376.943-2.041-.225-.673-1.017-.062-1.787 1.376m-33.415 15.03c-1.883 2.874-2.103 5.167-.586 6.105 1.497.925 5.09-3.554 4.74-5.907-.437-2.935-2.302-3.024-4.154-.198M173 93.186c0 1.202.963 3.21 2.139 4.462 1.177 1.252 2.639 3.271 3.25 4.486 1.418 2.818 3.432 3.495 4.229 1.42.626-1.633-4.553-7.554-6.609-7.554-.555 0-1.009-1.125-1.009-2.5s-.45-2.5-1-2.5-1 .983-1 2.186m55.188 3.877c.24.721 1.028 1.509 1.75 1.75.75.25 1.125-.125.875-.875-.241-.722-1.029-1.51-1.75-1.75-.75-.25-1.125.125-.875.875M157.085 99.5c.08 1.1.093 2.563.03 3.25-.162 1.762-3.782 1.56-4.477-.25-1.13-2.946-3.638-1.682-3.638 1.833 0 1.834.266 3.6.592 3.925.325.326 2.613-.274 5.083-1.333s5.504-1.925 6.741-1.925c1.238 0 2.547-.296 2.909-.658.938-.938-1.283-3.342-3.087-3.342-.835 0-2.143-.787-2.908-1.75-1.306-1.643-1.382-1.628-1.245.25m-126.422 8.816c-.697 4.158-.351 15.329.501 16.182.366.365 1.619.153 2.786-.471 1.796-.962 2.017-1.7 1.444-4.831-.372-2.033-1.287-4.056-2.035-4.496-1.939-1.141-1.68-3.323.652-5.496 2.009-1.871 2.009-1.874-.401-2.972-2.238-1.019-2.451-.869-2.947 2.084M126 109.453c0 .249 1.575 1.201 3.5 2.114 2.808 1.332 3.5 2.232 3.5 4.547 0 1.587-.482 2.886-1.071 2.886-.59 0-1.747.675-2.572 1.5-1.737 1.738-2.318 1.81-4.328.539-1.917-1.212-.774-2.289 2.429-2.289 2.914 0 3.506-2.511.792-3.36-.963-.301-2.947-1.188-4.41-1.972-1.463-.783-3.375-1.15-4.25-.814-.874.335-1.59.112-1.59-.497S116.893 111 115.539 111c-2.634 0-5.835 2.833-8.113 7.179-.772 1.474-2.309 2.966-3.415 3.318-1.106.351-2.011 1.248-2.011 1.994 0 1.092.632 1.046 3.25-.239 1.787-.878 3.475-1.925 3.75-2.329.275-.403 3.508-.491 7.183-.196 6.2.497 6.769.743 7.871 3.405.814 1.963 1.903 2.868 3.453 2.868 1.245 0 3.553.672 5.129 1.494 3.61 1.883 5.364 1.907 5.364.073 0-2.088 3.284-2.8 9.389-2.038 3.515.44 5.604.291 6.049-.429.374-.605 1.688-1.1 2.921-1.1 3.046 0 4.641-1.826 4.641-5.311 0-2.819-.12-2.89-3.75-2.232-2.062.374-4.653.895-5.756 1.159-1.459.348-2.508-.369-3.84-2.625-1.842-3.117-5.549-3.842-4.767-.932 1.35 5.032 1.299 5.941-.338 5.941-1.828 0-8.544-6.584-8.557-8.39-.004-.61-1.219-1.672-2.699-2.36-2.7-1.254-5.293-1.644-5.293-.797M234.5 111c.34.55.816 1 1.059 1s.441-.45.441-1-.477-1-1.059-1-.781.45-.441 1m-7.342 2c0 1.375.227 1.938.504 1.25.278-.687.278-1.812 0-2.5-.277-.687-.504-.125-.504 1.25m-22.561 2.5c-1.159 1.544-2.871 2.5-4.477 2.5h-2.6l2.625 2.434c2.314 2.145 2.566 3.003 2.129 7.25-.376 3.658-1.25 5.584-3.635 8.013a3294.779 3294.779 0 0 1-9.139 9.243c-6.133 6.179-6.018 8.478.153 3.06 4.749-4.17 6.347-3.933 6.347.941 0 2.168-.45 4.219-1 4.559-.55.34-1 1.735-1 3.101 0 1.365-.878 3.425-1.95 4.576-1.073 1.151-2.619 3.502-3.436 5.223-.816 1.722-2.639 4.214-4.049 5.539-2.585 2.428-3.509 7.36-1.6 8.539.531.328 2.753-.587 4.939-2.033 3.933-2.603 4.006-2.611 7.035-.822 1.684.995 3.061 2.338 3.061 2.986 0 1.532 2.761 2.587 3.527 1.347.932-1.507 2.228-1.135 4.499 1.294 1.922 2.055 2.187 2.103 3.061.549.526-.935 1.651-2.394 2.499-3.242 1.665-1.665 1.115-3.557-1.034-3.557-.731 0-1.267.787-1.191 1.75.088 1.107-.686 1.866-2.111 2.069-1.816.258-2.25-.16-2.25-2.166 0-1.368.506-2.655 1.125-2.861.619-.207 1.125-1.568 1.125-3.025 0-1.457.611-2.883 1.358-3.17.769-.295 1.092-1.214.745-2.119-.416-1.085.07-1.776 1.517-2.154 1.172-.307 2.13-1.004 2.13-1.549 0-.562 1.097-.716 2.532-.356 2.021.507 3.13-.02 5.5-2.615 1.632-1.787 2.968-3.824 2.968-4.527 0-.702.64-1.277 1.423-1.277s2.773-1.35 4.423-3 3.429-3 3.952-3c.524 0 1.222-1.35 1.552-3 .43-2.148 1.175-3 2.625-3 3.008 0 2.483-1.297-1.975-4.88-2.988-2.401-4-3.939-4-6.079 0-2.53-.439-2.941-3.75-3.509-3.877-.665-7.975-5.047-10.205-10.914-.702-1.847-1.722-2.618-3.461-2.618-1.356 0-2.744-.45-3.084-1-1.147-1.857-5.013-1.017-6.903 1.5M118 116.583c0 .871.534 1.406 1.188 1.188 1.854-.618 2.161-2.771.395-2.771-.87 0-1.583.713-1.583 1.583m-36.187 1.1c.721.289 1.584.253 1.916-.079.332-.332-.258-.568-1.312-.525-1.165.048-1.402.285-.604.604M186 119.371c0 .425.643 1.415 1.429 2.2 1.629 1.63 5.571 1.933 5.571.429 0-.55-1.035-1-2.3-1s-2.84-.54-3.5-1.2c-.66-.66-1.2-.853-1.2-.429M145 122c0 .55.45 1 1 1s1-.45 1-1-.45-1-1-1-1 .45-1 1m-111.404 9.845c-1.774 2.869-1.638 9.45.345 16.75 3.71 13.661 15.778 36.379 19.334 36.396.976.005 2.186 1.09 2.688 2.412 1.19 3.129 2.894 4.133 3.654 2.153.629-1.641-.941-4.517-4.512-8.264C53.947 180.077 53 178.7 53 178.23c0-.469-.788-1.744-1.75-2.834-2.28-2.581-4.633-6.606-7.833-13.396-1.425-3.025-3.002-6.281-3.504-7.236-.502-.955-.913-2.616-.913-3.691 0-1.075-.45-2.233-1-2.573-.55-.34-1-1.665-1-2.945 0-1.279-.672-3.615-1.493-5.191-.931-1.787-1.266-4.086-.889-6.114.576-3.099.1-4.22-1.022-2.405m129.404-.3c0 .982 4.883 5.455 5.955 5.455 1.701 0 1.203-1.503-1.269-3.826-2.146-2.015-4.686-2.898-4.686-1.629m8 7.232c0 2.351 6.681 8.223 9.356 8.223 1.436 0-2.267-5.027-5.044-6.847-3.556-2.332-4.312-2.573-4.312-1.376M241 144c0 .55.45 1 1 1s1-.45 1-1-.45-1-1-1-1 .45-1 1m-163.25 1.655c-.413.635-.863 5.446-1 10.691l-.25 9.536 3.25 3.357c1.787 1.846 3.25 3.813 3.25 4.372 0 1.556 5.194 6.16 8 7.09 1.375.456 5.875.711 10 .566 11.953-.42 12.273-.412 17 .439 4.372.787 4.5.915 4.5 4.491 0 3.211.681 4.264 5.332 8.242 2.932 2.509 5.756 4.561 6.274 4.561.519 0 1.417-1.238 1.996-2.75.985-2.573.694-3.074-4.524-7.791-4.862-4.394-5.578-5.518-5.578-8.75 0-3.66-.052-3.709-4-3.709-2.2 0-4-.45-4-1 0-1.312-6.697-1.299-7.509.014-.898 1.454-15.329.33-17.891-1.393-3.548-2.386-6.6-5.632-6.6-7.02 0-.726-1.125-2.166-2.5-3.198-1.375-1.033-2.5-2.581-2.5-3.44 0-.86-.425-1.991-.945-2.513-.52-.522-1.082-3.65-1.25-6.95-.168-3.3-.643-5.48-1.055-4.845M234 158c-.901.582-1.025.975-.309.985.655.008 1.469-.435 1.809-.985.767-1.242.421-1.242-1.5 0m-7 2.5c0 1.795.539 2.5 1.912 2.5 1.919 0 2.204-1.423.751-3.75-1.288-2.062-2.663-1.416-2.663 1.25m-16 9.5c-1.383.894-.687 1.45 1.355 1.083.471-.084 1.494.377 2.274 1.024 1.718 1.426 2.84.559 2.026-1.564-.667-1.738-3.4-2-5.655-.543m22.5 0c.34.55 1.293 1 2.118 1s1.222-.45.882-1c-.34-.55-1.293-1-2.118-1s-1.222.45-.882 1M186 184.059c0 .582.45.781 1 .441s1-.816 1-1.059-.45-.441-1-.441-1 .477-1 1.059m31.188 1.004c.24.721 1.028 1.509 1.75 1.75.75.25 1.125-.125.875-.875-.241-.722-1.029-1.51-1.75-1.75-.75-.25-1.125.125-.875.875M187 188.059c0 .582.45.781 1 .441s1-.816 1-1.059-.45-.441-1-.441-1 .477-1 1.059M62 193c0 .55.927 1 2.059 1 1.132 0 1.781-.45 1.441-1-.34-.55-1.266-1-2.059-1-.793 0-1.441.45-1.441 1m115.091 2.931c-1.377 1.039-2.074 2.287-1.655 2.965.491.795 1.376.341 2.758-1.415 2.53-3.217 2.034-3.916-1.103-1.55m-44.461 7.319c-1.164 4.345-.593 5.944 3.62 10.141 7.485 7.456 11.56 8.53 19.25 5.072 3.54-1.591 6.422-5.463 4.067-5.463-.797 0-1.727.45-2.067 1-.34.55-2.391 1-4.559 1s-3.941-.45-3.941-1-.852-1-1.892-1c-1.041 0-4.392-2.7-7.448-6-3.055-3.3-5.751-6-5.991-6-.239 0-.707 1.012-1.039 2.25m39.441 2.165c-.746.898-1.059 1.93-.697 2.292.934.934 2.932-1.29 2.452-2.729-.276-.828-.818-.693-1.755.437"/></svg>